<svg data-name="Layer 1" xmlns="http://www.w3.org/2000/svg" xmlns:xlink="http://www.w3.org/1999/xlink" width="835.19" height="791.24"><defs><linearGradient id="a" x1="380.08" y1="743.36" x2="664.61" y2="71.48" gradientTransform="rotate(-.14 -841.696 5577.13)" gradientUnits="userSpaceOnUse"><stop offset="0" stop-color="gray" stop-opacity=".25"/><stop offset=".54" stop-color="gray" stop-opacity=".12"/><stop offset="1" stop-color="gray" stop-opacity=".1"/></linearGradient><clipPath id="b" transform="translate(-182.4 -29.66)"><path data-name="&lt;Clipping Path&gt;" d="M596.93 103.62A28.38 28.38 0 0 1 569 127.83l-120.93.29a28.38 28.38 0 0 1-28-24.07l-64.07.15a13.3 13.3 0 0 0-13.27 13.33l1.39 573.67a13.3 13.3 0 0 0 13.33 13.27l306-.74a13.3 13.3 0 0 0 13.27-13.33l-1.39-573.67A13.3 13.3 0 0 0 662 103.46z" fill="#f9f0a5" opacity=".3"/></clipPath><linearGradient id="c" x1="561.94" y1="387.88" x2="561.94" y2="214.05" gradientTransform="rotate(7.89 589.222 306.706)" xlink:href="#a"/><linearGradient id="d" x1="792.73" y1="820.9" x2="792.73" y2="462.68" xlink:href="#a"/><linearGradient id="e" x1="440.92" y1="751.86" x2="440.92" y2="313.54" xlink:href="#a"/></defs><path d="M675.17 79.1l-332.5.81A13.66 13.66 0 0 0 329 93.6l1.51 621.89a13.66 13.66 0 0 0 13.7 13.63l332.5-.81a13.66 13.66 0 0 0 13.63-13.69l-1.47-621.89a13.66 13.66 0 0 0-13.7-13.63z" transform="translate(-182.4 -29.66)" fill="url(#a)" opacity=".5"/><rect x="334.65" y="87.99" width="350.11" height="631.95" rx="13.64" ry="13.64" transform="rotate(-.14 -11722.727 75035.039)" fill="#fff"/><path data-name="&lt;Clipping Path&gt;" d="M414.53 73.96a28.38 28.38 0 0 1-27.93 24.21l-120.93.29a28.38 28.38 0 0 1-28-24.07l-64.07.15a13.3 13.3 0 0 0-13.27 13.33l1.39 573.67a13.3 13.3 0 0 0 13.33 13.27l306-.74a13.3 13.3 0 0 0 13.27-13.33l-1.39-573.67A13.3 13.3 0 0 0 479.6 73.8z" fill="#f9f0a5" opacity=".3"/><g clip-path="url(#b)"><path fill="none" stroke="#fff" stroke-miterlimit="10" stroke-width="4" d="M69.95 113l476.14 389.95 6.26-319.14-537.74-19.05 84.92 81.43 538.57 41.39L77.13 428.95l508 164.9-1.9 62.48-524.2-31.16 15.88 157.57 230.18-20.54L428.54.32"/></g><rect x="466.82" y="111.42" width="78.02" height="4.88" rx="2" ry="2" transform="rotate(-.86 -1560.373 12251.379)" fill="#dbdbdb"/><circle cx="561.41" cy="112.53" r="2.93" transform="rotate(-.86 -1505.062 12249.795)" fill="#dbdbdb"/><path d="M627 280.21c-4.64 33.48-73.52 103.51-73.52 103.51S501.4 296.92 506 263.44a61.05 61.05 0 1 1 121 16.76z" transform="translate(-182.4 -29.66)" fill="url(#c)"/><path d="M440.6 251.6c-4.35 31.41-69 97.09-69 97.09s-48.85-81.4-44.49-112.81A57.287 57.287 0 1 1 440.6 251.6z" fill="#f9f0a5"/><ellipse cx="566.92" cy="268.85" rx="28.71" ry="28.63" transform="rotate(-82.11 458.688 358.739)" fill="#fff"/><path d="M810.81 477c18.19 30 22.79 53.3 22.79 53.3 5.4-96.26-23.89-62-26.73-60.32l-.06-.11-9.8 5.66a22.52 22.52 0 0 0-15.75-6.63 21.89 21.89 0 0 0-11.79 3.49c-7 .16-12.54 3.72-12.54 8.1a5.28 5.28 0 0 0 .44 2.06 25.37 25.37 0 0 0 15.11 42.11l2.58 18.34-4.06 3.2a22.57 22.57 0 0 0-8.71 16.36c-.38 6.8 2.42 14.58 15.13 18.56 0 0-.22 2.35-.64 6.06l-21.61 43.22s-8.64 19.81.63 20.39c13.33-2.32 11-7.53 12.75-12.17l1-3.45h5.09c-4.14 22.63-17.64 100.41-16.3 146.22v13.25l-.86 6.56-24.88 7.46a6.26 6.26 0 0 0 2 12.25l35.17-1.17a6.26 6.26 0 0 0 6-6.25v-17.81h6.36v-14.3l6.36-76.29.83-2 .76 9.9 28.61 63.58 6.36 11.13 2.77-1.49-.82 10.48-11.6 10.06a6.26 6.26 0 0 0-1.6 7.3 6.26 6.26 0 0 0 8.47 3l31.57-15.53a6.26 6.26 0 0 0 2.94-8.19l-2.78-6.12a6.23 6.23 0 0 0-4.36-3.52l-6-6 2.07-1.11-4.71-11.1-28.61-66.75-1.17-37.57c5.73-3.63 13.89-11.47 12.05-26h1.84s-4.05-23.55-6.15-49.27l-.2-2.49v-3.86s-.21-1.21-.59-3.17c-2.25-25.39-5.72-45.55-24.7-47.83l-.14.11v-7.82c7.35-4.79 12.31-13.8 12.31-24.16a30.61 30.61 0 0 0-3.72-14.67l8.86-5.11z" transform="translate(-182.4 -29.66)" fill="url(#d)" opacity=".5"/><ellipse cx="599.53" cy="471.41" rx="23.6" ry="26.97" fill="#ffcc80"/><path fill="#fda57d" d="M594.24 758.28v13.87h-18.5l1.54-11.81 16.96-2.06zM645.1 747.49l-1.5 18.5h1a29.72 29.72 0 0 0 19.74-7.51l5.43-4.82-13.87-13.87z"/><path fill="#4d8af0" d="M606.57 661.19l1.54 20.04 27.74 61.64 21.57-10.79-27.74-64.72-1.54-49.32h-24.66l3.09 43.15z"/><path opacity=".05" d="M606.57 661.19l1.54 20.04 27.74 61.64 21.57-10.79-27.74-64.72-1.54-49.32h-24.66l3.09 43.15z"/><path d="M600.4 548.68l-26.2 52.4s-8.38 19.21.61 19.77c12.92-2.25 10.67-7.3 12.36-11.8l16.32-55.71z" fill="#fda57d"/><circle cx="594.67" cy="474.16" r="24.66" fill="#fda57d"/><path fill="#fda57d" d="M611.19 510.16l-17.28 9.01-4.3-30.59h21.58v21.58z"/><path d="M594.24 599.54s-18.49 95.55-17 148h23.16l6.16-74 17-40.07s23.04-7.73 15.37-33.93z" fill="#4d8af0"/><path fill="#4d8af0" d="M577.28 745.34h23.12v16.02h-23.12z"/><path fill="#fff" opacity=".05" d="M577.28 745.34h23.12v16.02h-23.12z"/><path fill="#4d8af0" d="M635.22 741.44l6.42 12.31L662.05 743l-5.45-12.66-21.38 11.1zM577.97 766.24l-25.65 7.69a6.07 6.07 0 0 0-4.32 5.81 6.07 6.07 0 0 0 6.27 6.06l34.1-1.14a6.07 6.07 0 0 0 5.87-6.06v-6.56a6.07 6.07 0 0 0-6.07-6.07h-8.45a6.07 6.07 0 0 0-1.75.27z"/><path d="M611.33 502.34l-21.73 17.11a21.88 21.88 0 0 0-8.49 15.89c-.37 6.59 2.35 14.14 14.68 18 0 0-4.62 49.32-12.33 52.4h58.56s-3.93-22.84-6-47.78c-2.33-28.85-4.04-53.17-24.69-55.62z" fill="#47e6b1"/><path d="M611.19 533.27l13.87 24.66-1.54 55.48s-7.71 12.33-1.54 13.87 15.41-3.08 13.87-12.33v-63.19s-4.62-26.2-9.25-32.36z" fill="#fda57d"/><path d="M652.85 754.54L632.6 772.1a6.07 6.07 0 0 0-1.55 7.08 6.07 6.07 0 0 0 8.21 2.95l30.61-15.06a6.07 6.07 0 0 0 2.85-7.94l-2.7-6a6.07 6.07 0 0 0-8-3l-7.71 3.48a6.07 6.07 0 0 0-1.46.93z" fill="#4d8af0"/><path fill="#ffcc80" d="M623.6 455.34l-5.58 2.77-3.94-6.82 5.52-2.95 4 7z"/><path d="M619.6 448.34s37-39 29.31 55.66c0 0-8.9-25.63-25.31-48.66z" fill="#ffcc80"/><ellipse cx="601.78" cy="471.41" rx="21.35" ry="23.6" fill="#ffcc80"/><ellipse cx="588.57" cy="455.68" rx="12.64" ry="7.87" fill="#ffcc80"/><path d="M549.46 376a10.83 10.83 0 0 0-8.46 6.1c-3.47 7.19-10.35 19.79-16.67 21.77-4.11 1.28-10.1.2-15.38-1.34l-2.15-.66v-2.73S475.91 382 458.27 378v-12.56a22.85 22.85 0 0 0 5.25-34c4.73-1.74 7.85-4.75 7.85-8.18 0-5.39-7.74-9.76-17.28-9.76-8.3 0-15.23 3.3-16.9 7.71a23.42 23.42 0 0 0-6.8 43.39v12.5c-9.48-.09-36.65 3.89-48.51 50.42 0 0 1.68 1.44 4.28 3.46l-.35.91-31.53 81.22s-25.09 6.69-12.27 19c0 0 0-.19-.06-.51l6.3 14.5 1.12 2.4 7.43 15.86-.74 3.61-9.52 46.72h-13.11v7.41H345l-26.4 129.76h8.34l25.44-129.76h31.48l16.93 36.15h-8v8.34h12L415.65 690c-1.32 1.33-1.46 3.37 3 6.32l3.46 7.38h-9.86v5.56h12.47l20 42.64h16.68l-20.17-42.64h9v-2.81c9.15 1.33 16.7 1.33 18.09-.06 2.79-2.79 2.23-14.5-1.67-20.07a7.16 7.16 0 0 0-1.5-1.61c.46-11.7 2.12-35 8.19-49.12 8.36-19.51-4.46-41.26-4.46-41.26l-.4-8.09V583c4.6-.88 7.65-1.53 7.65-1.53s-8.36-27.32 0-41.26c5.81-9.68 6.23-23.93 2.78-36.6v-.09q-.26-.94-.54-1.86v-.1a41.48 41.48 0 0 0 5.07-5.4s-11.71-54.64 0-71.93l23.42 1.67v-3.07h20.91l18.4-25.65s12.82-3.35 16.73-14.5c2.48-7.35-6.8-7.43-13.44-6.68zm-155.59 96.45s7.61-13.39 11.36-27.13v-.05q.28-1 .53-2.08c.6.22 1.18.42 1.75.57 0 0 5.58 50.18-3.35 52.41 0 0 1.79 1.16 4.88 2.84l-3.28 1.31-18.88 7.55 1.21 4c-.68.13-1.44.28-2.25.45-5.39 1.15-13.38 3.39-19.78 7.4s7.18-24.41 27.81-47.27zM358.93 526a17.21 17.21 0 0 0-1.62 2.66l-2-5.29c.75.09 1.52.21 2.35.36-.03.01.52.94 1.27 2.27zm2.18 51.6l.57-2.89 12.94 27.62a67.12 67.12 0 0 1-16.14 1.34 11.66 11.66 0 0 0-2.86 1.92l5.49-28zm-7.27 37.07l1-5.29c1 1.34 3.43 2.75 8.56 4.07a59.62 59.62 0 0 0 6.27 1.22h-15.83zM421 666.59h9.74v-8.34h-13.68L400 622.1h7.62v-7.41h-9.08c6.07-.79 10.48-2 11.28-3.26 2.07-3.22-.71-14-5.44-18.83-3.14-13.27-10.61-42-17.44-46.27l9.78-1.82h.1l1.26-.23 3.36 11a177.18 177.18 0 0 0 23.42-3.14v.12a184.09 184.09 0 0 1-19.63 2.74l.07.24a174.74 174.74 0 0 0 19.43-2.38c-1.41 12.47-2.62 33.93 5.66 34.72a36.75 36.75 0 0 0 4.56.09v2.81h.18c.6 7.6 2.22 17.74 6.41 26.12l5.38 72.66a67.28 67.28 0 0 1-14.89.66l-11-23.31z" transform="translate(-182.4 -29.66)" fill="url(#e)" opacity=".5"/><path d="M211.2 482.28s-46.3 5.38-32.3 33.38a318 318 0 0 1 21.27 56.8l24.5-5.11s-9.69-45.76-18.31-51.15l23.15-4.31z" fill="#fda57d"/><path d="M206.36 516.2l23.15-4.31-18.31-29.61s-.54.06-1.49.21l18.18 29.4-23.15 4.31c8.61 5.38 18.31 51.15 18.31 51.15l-23 4.79.08.32 24.5-5.11s-9.66-45.77-18.27-51.15z" opacity=".05"/><path d="M214.88 562.16s-14.31 10.26-36 9.44c0 0-11.53 5.25 4.79 9.43s42.68 1.23 44.74-2-.86-14.14-5.68-18.6-7.85 1.73-7.85 1.73z" fill="#4d8af0"/><path d="M252.66 547.96s-1.08 21 6.46 36.07l5.38 72.68h17.23s0-35.53 8.08-54.38-4.31-39.84-4.31-39.84l-1.08-21.54z" fill="#fda57d"/><path d="M244.04 514.04s-7 40.92 4.31 42 44.15-5.92 44.15-5.92-8.08-26.38 0-39.84 5.38-36.07-3.77-50.07-19.38 0-19.38 0z" fill="#47e6b1"/><circle cx="263.42" cy="322.92" r="22.07" fill="#fda57d"/><path fill="#fda57d" d="M248.35 334.22h26.92v24.23h-26.92z"/><path d="M275.27 651.34s-16.15 7-37.15 1.62c0 0-12.38 2.69 2.69 10.23s41.46 10.23 44.15 7.54 2.15-14-1.62-19.38-8.07-.01-8.07-.01z" fill="#4d8af0"/><path d="M206.6 402.34l-31.77 81.84s-24.23 6.46-11.84 18.31c0 0-2.15-11.31 15.07-8.08 0 0 4.85 8.08 4.85 10.77s5.54-9 3.31-14.72a131.31 131.31 0 0 1 26.84-45.58s13.46-23.69 12.92-39.84zM313.23 373.25s17.23 8.08 25.84 5.38c6.1-1.91 12.74-14.08 16.1-21a10.46 10.46 0 0 1 8.16-5.85c6.41-.77 15.38-.69 12.89 6.41-3.77 10.77-16.15 14-16.15 14l-17.77 24.75h-31.23z" fill="#fda57d"/><circle cx="259.39" cy="321.03" r="22.61" fill="#3d213c"/><ellipse cx="271.23" cy="300.84" rx="16.69" ry="9.42" fill="#3d213c"/><path opacity=".05" d="M252.75 556.12v2.72l32.36-4.15v-3.09l-32.36 4.52z"/><path d="M241.35 465.05l-35 14 14 45.76s42-2.15 57.61-18.31-25.84-48.46-25.84-48.46z" fill="#47e6b1"/><path d="M282.01 497.34a12.15 12.15 0 0 1-3.51 9.18c-13 13.47-44.4 17.21-54.45 18.07l.07.23s42-2.15 57.61-18.31a12.09 12.09 0 0 0 3.52-8.7" opacity=".05"/><path d="M251.6 353.06s-36.07-6.46-50.07 48.46c0 0 15.07 12.92 24.77 15.61 0 0 5.38 48.46-3.23 50.61 0 0 50.61 32.84 76.45 0 0 0-11.31-52.76 0-69.45l22.61 1.62v-25.85s-33.92-18.84-50.07-21z" fill="#4d8af0"/><path opacity=".05" d="M207.52 482.87l-2.18.43 10.46 31.14 1.31-.24-9.59-31.33zM322.11 376.7l2.13.66.7 19.58h-2.83V376.7zM205.64 404.87l-.72 1.84 19.13 11.96.54-2.09-18.95-11.71zM227.76 470.49l-3.16 1.26s53.09 25.72 70.59 3.18l-.58-2s-16.1 21.57-66.85-2.44z"/><path fill="#b0bec5" d="M154.72 582.21h71.6v7.16h-71.6zM160.09 495.39l8.95 20.59h15.22l-8.95-23.27-15.22 2.68z"/><path fill="#b0bec5" d="M262.12 714.67h16.11l-95.29-201.7-14.51 1.12 93.69 200.58z"/><path fill="#b0bec5" d="M140.4 714.67h8.06l35.8-182.58-5.37-6.27-38.49 188.85z"/><path fill="#eceff1" d="M170.13 518.29l-1.09-2.31h15.22l.54 1.15-14.67 1.16z"/><path opacity=".1" d="M170.13 518.29l-1.09-2.31h15.22l.54 1.15-14.67 1.16zM177.3 533.61l4.69 10.02-.54 2.78-4.86-9.32.71-3.48zM174.43 582.21l-1.4 7.16h2.43l1.13-7.16h-2.16z"/><path fill="#b0bec5" d="M212 624.27h36.69v8.05H212zM230.8 668.13h36.69v5.37H230.8z"/><path opacity=".1" d="M235.48 624.27l3.81 8.06h2.02l-2.92-8.06h-2.91zM256.22 668.13l2.54 5.37H261l-2.39-5.37h-2.39zM215.58 582.21l3.39 7.16h1.83l-3.58-7.16h-1.64z"/><g opacity=".5" fill="#47e6b1"><path d="M99.19 130.76h3v17h-3z"/><path d="M109.19 137.76v3h-17v-3z"/></g><g opacity=".5" fill="#47e6b1"><path d="M123.19 237.34h3v17h-3z"/><path d="M133.19 244.34v3h-17v-3z"/></g><g opacity=".5" fill="#47e6b1"><path d="M583.19 98.76h3v17h-3z"/><path d="M593.19 105.76v3h-17v-3z"/></g><g opacity=".5" fill="#47e6b1"><path d="M825.19 161.34h3v17h-3z"/><path d="M835.19 168.34v3h-17v-3z"/></g><path d="M12.29 229.65a3.67 3.67 0 0 1-2-4.44 1.77 1.77 0 0 0 .08-.41 1.84 1.84 0 0 0-3.31-1.22 1.77 1.77 0 0 0-.2.36 3.67 3.67 0 0 1-4.44 2 1.77 1.77 0 0 0-.41-.08 1.84 1.84 0 0 0-1.22 3.31 1.77 1.77 0 0 0 .36.2 3.67 3.67 0 0 1 2 4.44 1.77 1.77 0 0 0-.08.41 1.84 1.84 0 0 0 3.31 1.22 1.77 1.77 0 0 0 .2-.36 3.67 3.67 0 0 1 4.44-2 1.77 1.77 0 0 0 .41.08 1.84 1.84 0 0 0 1.22-3.31 1.77 1.77 0 0 0-.36-.2zM768.29 420.65a3.67 3.67 0 0 1-2-4.44 1.77 1.77 0 0 0 .08-.41 1.84 1.84 0 0 0-3.31-1.22 1.77 1.77 0 0 0-.2.36 3.67 3.67 0 0 1-4.44 2 1.77 1.77 0 0 0-.41-.08 1.84 1.84 0 0 0-1.22 3.31 1.77 1.77 0 0 0 .36.2 3.67 3.67 0 0 1 2 4.44 1.77 1.77 0 0 0-.08.41 1.84 1.84 0 0 0 3.31 1.22 1.77 1.77 0 0 0 .2-.36 3.67 3.67 0 0 1 4.44-2 1.77 1.77 0 0 0 .41.08 1.84 1.84 0 0 0 1.22-3.31 1.77 1.77 0 0 0-.36-.2zM715.29 115.65a3.67 3.67 0 0 1-2-4.44 1.77 1.77 0 0 0 .08-.41 1.84 1.84 0 0 0-3.31-1.22 1.77 1.77 0 0 0-.2.36 3.67 3.67 0 0 1-4.44 2 1.77 1.77 0 0 0-.41-.08 1.84 1.84 0 0 0-1.22 3.31 1.77 1.77 0 0 0 .36.2 3.67 3.67 0 0 1 2 4.44 1.77 1.77 0 0 0-.08.41 1.84 1.84 0 0 0 3.31 1.22 1.77 1.77 0 0 0 .2-.36 3.67 3.67 0 0 1 4.44-2 1.77 1.77 0 0 0 .41.08 1.84 1.84 0 0 0 1.22-3.31 1.77 1.77 0 0 0-.36-.2zM739.29 289.65a3.67 3.67 0 0 1-2-4.44 1.77 1.77 0 0 0 .08-.41 1.84 1.84 0 0 0-3.31-1.22 1.77 1.77 0 0 0-.2.36 3.67 3.67 0 0 1-4.44 2 1.77 1.77 0 0 0-.41-.08 1.84 1.84 0 0 0-1.22 3.31 1.77 1.77 0 0 0 .36.2 3.67 3.67 0 0 1 2 4.44 1.77 1.77 0 0 0-.08.41 1.84 1.84 0 0 0 3.31 1.22 1.77 1.77 0 0 0 .2-.36 3.67 3.67 0 0 1 4.44-2 1.77 1.77 0 0 0 .41.08 1.84 1.84 0 0 0 1.22-3.31 1.77 1.77 0 0 0-.36-.2z" fill="#4d8af0" opacity=".5"/><circle cx="72.19" cy="420.34" r="6" fill="#f55f44" opacity=".5"/><circle cx="584.19" cy="222.34" r="6" fill="#4d8af0" opacity=".5"/><circle cx="633.19" cy="374.34" r="6" fill="#47e6b1" opacity=".5"/><circle cx="13.19" cy="58.34" r="6" fill="#f55f44" opacity=".5"/></svg>